# xmcd
#
# Track frame offsets:
#	150
#	15521
#	30127
#	45639
#	59458
#	71327
#	82108
#	92858
#	107707
#	118143
#	127327
#	141490
#	152884
#	170219
#	183768
#	199187
#	215683
#	231050
#	241336
#	254333
#	269910
#	285172
#	296913
#	310904
#	324358
#	334352
#	346684
#
# Disc length: 4784 seconds
#
# Revision: 0
# Processed by: cddbd v1.4PL0 Copyright (c) Steve Scherf et al.
# Submitted via: audiograbber 1.80.04
#
DISCID=a112ae1b
DTITLE=Ricky Van Shelton - Collection
DYEAR=2001
DGENRE=Country
TTITLE0=All I Have To Offer You Is me
TTITLE1=Borrowed Angel
TTITLE2=Crime Of Passion
TTITLE3=Don't Send Me No Angels
TTITLE4=Don't We All Have The Right
TTITLE5=From A Jack To A King
TTITLE6=Fun Fun Fun
TTITLE7=He's Got You
TTITLE8=I Don't Care
TTITLE9=If You've Got The Money
TTITLE10=I'll Leave This World Loving You
TTITLE11=I've Cried My Last Tear
TTITLE12=Keep It Between The Lines
TTITLE13=Let Me Live And Love
TTITLE14=Life Turned Her That Way
TTITLE15=Life's Little Ups And Downs
TTITLE16=Living Proof
TTITLE17=Making Plans
TTITLE18=Oh Pretty Woman
TTITLE19=Rockin' Years (with Dolly Parton)
TTITLE20=Somebody Lied
TTITLE21=Somebody's Back In Town
TTITLE22=Statue Of A Fool
TTITLE23=The Picture
TTITLE24=Wear My Ring Around Your Neck
TTITLE25=Who'll Turn Out The Lights In Your World Tonight
TTITLE26=Working Man Blues
EXTD=Makin' Plans Has dropout at the 25 second mark.
EXTT0=
EXTT1=
EXTT2=
EXTT3=
EXTT4=
EXTT5=
EXTT6=
EXTT7=
EXTT8=
EXTT9=
EXTT10=
EXTT11=
EXTT12=
EXTT13=
EXTT14=
EXTT15=
EXTT16=
EXTT17=
EXTT18=
EXTT19=
EXTT20=
EXTT21=
EXTT22=
EXTT23=
EXTT24=
EXTT25=
EXTT26=
PLAYORDER=
